<svg width="18" height="17" viewBox="0 0 18 17" fill="none" xmlns="http://www.w3.org/2000/svg">
<g clip-path="url(#clip0)">
<path d="M17.755 6.46683C16.9655 3.29101 14.1468 0.752547 10.7316 0.153646C7.73744 -0.373826 4.79592 0.466833 2.66141 2.45584C0.526911 4.44485 -0.38537 7.1976 0.152642 10.0163C0.784221 13.3405 3.59124 16.0438 7.1351 16.7306C8.92457 17.0767 10.7491 16.9174 12.4158 16.2745C12.6029 16.2031 12.8953 16.1317 13.1994 16.2196L15.714 16.9449C15.8427 16.9833 15.9772 16.9998 16.1117 16.9998C16.4333 16.9998 16.7491 16.8899 17.0006 16.6811C17.3515 16.3844 17.5094 15.9503 17.4216 15.5163L16.907 12.9503C16.8544 12.6756 16.9421 12.4229 17.0298 12.2635C18.0006 10.4668 18.2462 8.46134 17.755 6.46683ZM16.0942 11.813C15.8661 12.2416 15.7901 12.6921 15.8778 13.1317L16.3924 15.6976C16.4216 15.8295 16.3398 15.9174 16.3047 15.9449C16.2696 15.9778 16.176 16.0438 16.0298 15.9998L13.5152 15.2745C13.3164 15.2196 13.1117 15.1866 12.907 15.1866C12.6146 15.1866 12.3164 15.2416 12.024 15.3569C10.5562 15.9284 8.94212 16.0657 7.35732 15.758C4.22867 15.1482 1.75498 12.769 1.19358 9.83496C0.708197 7.35145 1.52106 4.91189 3.4041 3.15365C5.28715 1.3954 7.88949 0.659141 10.5386 1.12068C13.5445 1.64815 16.0357 3.88442 16.7316 6.68661C17.1702 8.45584 16.948 10.2306 16.0942 11.813Z" fill="#4D4D4F"/>
</g>
<defs>
<clipPath id="clip0">
<rect width="18" height="17" fill="white"/>
</clipPath>
</defs>
</svg>
