<svg width="16" height="17" viewBox="0 0 16 17" fill="none" xmlns="http://www.w3.org/2000/svg">
<g clip-path="url(#clip0)">
<path d="M13.5184 0H1.51446C0.681788 0 0 0.681788 0 1.51446V15.8935C0 16.3294 0.245891 16.715 0.642669 16.8938C0.793557 16.9609 0.950033 16.9944 1.10651 16.9944C1.36358 16.9944 1.61506 16.905 1.82183 16.7262L7.51644 11.8419L13.211 16.7262C13.5408 17.0112 13.9934 17.0726 14.3902 16.8882C14.787 16.7038 15.0329 16.3238 15.0329 15.8879V1.51446C15.0329 0.681788 14.3511 0 13.5184 0ZM14.1387 15.8935C14.1387 16.0164 14.0549 16.0667 14.0158 16.0835C13.9767 16.1003 13.8872 16.1282 13.7922 16.05L7.80704 10.9198C7.63938 10.7745 7.39349 10.7745 7.22584 10.9198L1.24063 16.05C1.15122 16.1282 1.05621 16.1003 1.01709 16.0835C0.983564 16.0667 0.894149 16.0164 0.894149 15.8935V1.51446C0.894149 1.17357 1.17357 0.894149 1.51446 0.894149H13.5128C13.8537 0.894149 14.1331 1.17357 14.1331 1.51446V15.8935H14.1387Z" fill="#4D4D4F"/>
</g>
<defs>
<clipPath id="clip0">
<rect width="15.0329" height="17" fill="white"/>
</clipPath>
</defs>
</svg>
