<svg width="21" height="18" viewBox="0 0 21 18" fill="none" xmlns="http://www.w3.org/2000/svg">
<g clip-path="url(#clip0)">
<path d="M20.6773 8.7559C20.4872 9.34766 20.2105 9.90496 19.8475 10.4163C19.4902 10.9334 19.0522 11.3987 18.5393 11.8124L11.1628 17.7588C10.9784 17.9139 10.7421 18.0001 10.5001 18.0001C10.2638 18.0001 10.0275 17.9196 9.83733 17.7645L2.46082 11.8181C1.43502 10.9851 0.69737 9.92794 0.322781 8.75015C-0.478262 6.24521 0.236338 3.47023 2.15538 1.67195C3.94764 -0.00567154 6.42569 -0.453804 8.77119 0.465442C9.46274 0.735471 10.0506 1.2468 10.4943 1.7409C11.0475 1.12615 11.6238 0.700999 12.2232 0.465442C14.5687 -0.453804 17.0409 7.37484e-05 18.839 1.67195C20.7638 3.47023 21.4784 6.25095 20.6773 8.7559Z" fill="#F05161"/>
</g>
<defs>
<clipPath id="clip0">
<rect width="21" height="18" fill="white"/>
</clipPath>
</defs>
</svg>
