<svg width="3" height="14" viewBox="0 0 3 14" fill="none" xmlns="http://www.w3.org/2000/svg">
<path d="M1.50727 2.92493C0.596123 2.92492 -0.0048462 2.36261 -0.00484616 1.4738C4.51465e-07 0.58045 0.596123 -1.05077e-07 1.50727 -6.52493e-08C2.41842 -2.54218e-08 3 0.58045 3 1.4738C3 2.36261 2.41842 2.92493 1.50727 2.92493Z" fill="#4D4D4F"/>
<path d="M1.50727 8.21252C0.596123 8.21252 -0.00484668 7.65021 -0.00484664 6.7614C-0.0048466 5.87258 0.596123 5.2876 1.50727 5.2876C2.41842 5.2876 3 5.86805 3 6.7614C3 7.65475 2.41842 8.21252 1.50727 8.21252Z" fill="#4D4D4F"/>
<path d="M1.50727 13.5001C0.596123 13.5001 -0.00484668 12.9378 -0.00484664 12.049C-0.0048466 11.1602 0.596123 10.5752 1.50727 10.5752C2.41842 10.5752 3 11.1556 3 12.049C3 12.9378 2.41842 13.5001 1.50727 13.5001Z" fill="#4D4D4F"/>
</svg>
