<svg width="21" height="17" viewBox="0 0 21 17" fill="none" xmlns="http://www.w3.org/2000/svg">
<g clip-path="url(#clip0)">
<path d="M20.948 0.274725C20.8604 0.104396 20.6793 0 20.4748 0H0.526289C0.304314 0 0.111547 0.126374 0.035608 0.324176C-0.0403308 0.516483 0.0180836 0.736264 0.187486 0.868132L7.19722 6.51099L7.2089 16.5055C7.2089 16.7198 7.35494 16.9066 7.57107 16.9725C7.62365 16.989 7.68206 17 7.73463 17C7.8982 17 8.05591 16.9286 8.15522 16.8022L20.8954 0.791209C21.0181 0.637363 21.0356 0.43956 20.948 0.274725ZM1.94576 0.989011H18.1791L7.79305 5.6978L1.94576 0.989011ZM8.24284 6.59341L18.7691 1.81868L8.25452 15.0275L8.24284 6.59341Z" fill="#4D4D4F"/>
</g>
<defs>
<clipPath id="clip0">
<rect width="21" height="17" fill="white"/>
</clipPath>
</defs>
</svg>
